<mxfile host="app.diagrams.net" agent="Mozilla/5.0 (X11; Linux x86_64) AppleWebKit/537.36 (KHTML, like Gecko) Chrome/131.0.0.0 Safari/537.36" version="26.0.1">
  <diagram name="Page-1" id="Xu5woAlWUjhVEEGipf3Q">
    <mxGraphModel dx="2380" dy="1364" grid="0" gridSize="10" guides="1" tooltips="1" connect="1" arrows="1" fold="1" page="0" pageScale="1" pageWidth="850" pageHeight="1100" math="0" shadow="0">
      <root>
        <mxCell id="0" />
        <mxCell id="1" parent="0" />
        <mxCell id="Mm2QIsj9P77YF3cRDqTX-1" value="" style="rounded=0;whiteSpace=wrap;html=1;fillColor=#d5e8d4;strokeColor=#82b366;" vertex="1" parent="1">
          <mxGeometry x="-66" y="-270" width="160" height="80" as="geometry" />
        </mxCell>
        <mxCell id="Mm2QIsj9P77YF3cRDqTX-2" value="Home (/)" style="text;strokeColor=none;fillColor=none;html=1;align=center;verticalAlign=middle;whiteSpace=wrap;rounded=0;fontSize=16;" vertex="1" parent="1">
          <mxGeometry x="-19" y="-245" width="66" height="30" as="geometry" />
        </mxCell>
        <mxCell id="Mm2QIsj9P77YF3cRDqTX-80" style="edgeStyle=none;curved=1;rounded=0;orthogonalLoop=1;jettySize=auto;html=1;exitX=0;exitY=0.5;exitDx=0;exitDy=0;entryX=0.5;entryY=0;entryDx=0;entryDy=0;fontSize=12;startSize=8;endSize=8;" edge="1" parent="1" source="Mm2QIsj9P77YF3cRDqTX-3" target="Mm2QIsj9P77YF3cRDqTX-78">
          <mxGeometry relative="1" as="geometry">
            <Array as="points">
              <mxPoint x="-252" y="-67" />
            </Array>
          </mxGeometry>
        </mxCell>
        <mxCell id="Mm2QIsj9P77YF3cRDqTX-3" value="" style="rounded=0;whiteSpace=wrap;html=1;fillColor=#d5e8d4;strokeColor=#82b366;" vertex="1" parent="1">
          <mxGeometry x="-66" y="-88" width="160" height="80" as="geometry" />
        </mxCell>
        <mxCell id="Mm2QIsj9P77YF3cRDqTX-4" value="/p&lt;span style=&quot;background-color: transparent; color: light-dark(rgb(0, 0, 0), rgb(255, 255, 255));&quot;&gt;rojects&lt;/span&gt;" style="text;strokeColor=none;fillColor=none;html=1;align=center;verticalAlign=middle;whiteSpace=wrap;rounded=0;fontSize=16;" vertex="1" parent="1">
          <mxGeometry x="-19" y="-63" width="66" height="30" as="geometry" />
        </mxCell>
        <mxCell id="Mm2QIsj9P77YF3cRDqTX-6" value="" style="edgeStyle=none;orthogonalLoop=1;jettySize=auto;html=1;rounded=0;fontSize=12;startSize=8;endSize=8;curved=1;exitX=0;exitY=1;exitDx=0;exitDy=0;entryX=0;entryY=0;entryDx=0;entryDy=0;" edge="1" parent="1" source="Mm2QIsj9P77YF3cRDqTX-1" target="Mm2QIsj9P77YF3cRDqTX-3">
          <mxGeometry width="120" relative="1" as="geometry">
            <mxPoint x="380" y="-72" as="sourcePoint" />
            <mxPoint x="500" y="-72" as="targetPoint" />
            <Array as="points" />
          </mxGeometry>
        </mxCell>
        <mxCell id="Mm2QIsj9P77YF3cRDqTX-7" value="btn-projects" style="text;strokeColor=none;fillColor=none;html=1;align=center;verticalAlign=middle;whiteSpace=wrap;rounded=0;fontSize=16;" vertex="1" parent="1">
          <mxGeometry x="-57" y="-166" width="60" height="30" as="geometry" />
        </mxCell>
        <mxCell id="Mm2QIsj9P77YF3cRDqTX-8" value="" style="rounded=0;whiteSpace=wrap;html=1;fillColor=#f8cecc;strokeColor=#b85450;" vertex="1" parent="1">
          <mxGeometry x="-226" y="56" width="160" height="80" as="geometry" />
        </mxCell>
        <mxCell id="Mm2QIsj9P77YF3cRDqTX-9" value="/p&lt;span style=&quot;background-color: transparent; color: light-dark(rgb(0, 0, 0), rgb(255, 255, 255));&quot;&gt;rojects/gol&lt;/span&gt;" style="text;strokeColor=none;fillColor=none;html=1;align=center;verticalAlign=middle;whiteSpace=wrap;rounded=0;fontSize=16;" vertex="1" parent="1">
          <mxGeometry x="-179" y="81" width="66" height="30" as="geometry" />
        </mxCell>
        <mxCell id="Mm2QIsj9P77YF3cRDqTX-28" style="edgeStyle=none;curved=1;rounded=0;orthogonalLoop=1;jettySize=auto;html=1;exitX=0.5;exitY=1;exitDx=0;exitDy=0;fontSize=12;startSize=8;endSize=8;" edge="1" parent="1" source="Mm2QIsj9P77YF3cRDqTX-10" target="Mm2QIsj9P77YF3cRDqTX-17">
          <mxGeometry relative="1" as="geometry" />
        </mxCell>
        <mxCell id="Mm2QIsj9P77YF3cRDqTX-29" style="edgeStyle=none;curved=1;rounded=0;orthogonalLoop=1;jettySize=auto;html=1;exitX=0.75;exitY=1;exitDx=0;exitDy=0;entryX=0;entryY=0;entryDx=0;entryDy=0;fontSize=12;startSize=8;endSize=8;" edge="1" parent="1" source="Mm2QIsj9P77YF3cRDqTX-10" target="Mm2QIsj9P77YF3cRDqTX-19">
          <mxGeometry relative="1" as="geometry" />
        </mxCell>
        <mxCell id="Mm2QIsj9P77YF3cRDqTX-10" value="" style="rounded=0;whiteSpace=wrap;html=1;fillColor=#f8cecc;strokeColor=#b85450;" vertex="1" parent="1">
          <mxGeometry x="94" y="56" width="160" height="80" as="geometry" />
        </mxCell>
        <mxCell id="Mm2QIsj9P77YF3cRDqTX-11" value="/p&lt;span style=&quot;background-color: transparent; color: light-dark(rgb(0, 0, 0), rgb(255, 255, 255));&quot;&gt;rojects/flashcard&lt;/span&gt;" style="text;strokeColor=none;fillColor=none;html=1;align=center;verticalAlign=middle;whiteSpace=wrap;rounded=0;fontSize=16;" vertex="1" parent="1">
          <mxGeometry x="141" y="81" width="66" height="30" as="geometry" />
        </mxCell>
        <mxCell id="Mm2QIsj9P77YF3cRDqTX-12" value="This will become its own page, handling grouping of projects and perhaps completion percentage among other things" style="text;strokeColor=none;fillColor=none;html=1;align=center;verticalAlign=middle;whiteSpace=wrap;rounded=0;fontSize=16;" vertex="1" parent="1">
          <mxGeometry x="133" y="-63" width="234" height="30" as="geometry" />
        </mxCell>
        <mxCell id="Mm2QIsj9P77YF3cRDqTX-13" value="" style="edgeStyle=none;orthogonalLoop=1;jettySize=auto;html=1;rounded=0;fontSize=12;startSize=8;endSize=8;curved=1;exitX=0;exitY=1;exitDx=0;exitDy=0;entryX=0.5;entryY=0;entryDx=0;entryDy=0;" edge="1" parent="1" source="Mm2QIsj9P77YF3cRDqTX-3" target="Mm2QIsj9P77YF3cRDqTX-8">
          <mxGeometry width="120" relative="1" as="geometry">
            <mxPoint x="-150" y="-23" as="sourcePoint" />
            <mxPoint x="-30" y="-23" as="targetPoint" />
            <Array as="points" />
          </mxGeometry>
        </mxCell>
        <mxCell id="Mm2QIsj9P77YF3cRDqTX-14" value="btn-projects-gol" style="text;html=1;align=center;verticalAlign=middle;resizable=0;points=[];autosize=1;strokeColor=none;fillColor=none;fontSize=16;" vertex="1" parent="1">
          <mxGeometry x="-221" y="-8" width="128" height="31" as="geometry" />
        </mxCell>
        <mxCell id="Mm2QIsj9P77YF3cRDqTX-15" value="btn-projects-flashcard" style="text;html=1;align=center;verticalAlign=middle;resizable=0;points=[];autosize=1;strokeColor=none;fillColor=none;fontSize=16;" vertex="1" parent="1">
          <mxGeometry x="133" y="7" width="172" height="31" as="geometry" />
        </mxCell>
        <mxCell id="Mm2QIsj9P77YF3cRDqTX-16" value="" style="edgeStyle=none;orthogonalLoop=1;jettySize=auto;html=1;rounded=0;fontSize=12;startSize=8;endSize=8;curved=1;exitX=1;exitY=1;exitDx=0;exitDy=0;entryX=0.5;entryY=0;entryDx=0;entryDy=0;" edge="1" parent="1" source="Mm2QIsj9P77YF3cRDqTX-3" target="Mm2QIsj9P77YF3cRDqTX-10">
          <mxGeometry width="140" relative="1" as="geometry">
            <mxPoint x="14" y="18" as="sourcePoint" />
            <mxPoint x="154" y="18" as="targetPoint" />
            <Array as="points" />
          </mxGeometry>
        </mxCell>
        <mxCell id="Mm2QIsj9P77YF3cRDqTX-17" value="" style="rounded=0;whiteSpace=wrap;html=1;fillColor=#d5e8d4;strokeColor=#82b366;" vertex="1" parent="1">
          <mxGeometry x="94" y="183" width="160" height="80" as="geometry" />
        </mxCell>
        <mxCell id="Mm2QIsj9P77YF3cRDqTX-18" value="&lt;span style=&quot;background-color: transparent; color: light-dark(rgb(0, 0, 0), rgb(255, 255, 255));&quot;&gt;/flashcard/random&lt;/span&gt;" style="text;strokeColor=none;fillColor=none;html=1;align=center;verticalAlign=middle;whiteSpace=wrap;rounded=0;fontSize=16;" vertex="1" parent="1">
          <mxGeometry x="141" y="208" width="66" height="30" as="geometry" />
        </mxCell>
        <mxCell id="Mm2QIsj9P77YF3cRDqTX-19" value="" style="rounded=0;whiteSpace=wrap;html=1;fillColor=#f8cecc;strokeColor=#b85450;" vertex="1" parent="1">
          <mxGeometry x="273" y="183" width="160" height="80" as="geometry" />
        </mxCell>
        <mxCell id="Mm2QIsj9P77YF3cRDqTX-20" value="&lt;span style=&quot;background-color: transparent; color: light-dark(rgb(0, 0, 0), rgb(255, 255, 255));&quot;&gt;/flashcard/study&lt;/span&gt;" style="text;strokeColor=none;fillColor=none;html=1;align=center;verticalAlign=middle;whiteSpace=wrap;rounded=0;fontSize=16;" vertex="1" parent="1">
          <mxGeometry x="320" y="208" width="66" height="30" as="geometry" />
        </mxCell>
        <mxCell id="Mm2QIsj9P77YF3cRDqTX-27" style="edgeStyle=none;curved=1;rounded=0;orthogonalLoop=1;jettySize=auto;html=1;exitX=0;exitY=0.5;exitDx=0;exitDy=0;entryX=0.5;entryY=1;entryDx=0;entryDy=0;fontSize=12;startSize=8;endSize=8;" edge="1" parent="1" source="Mm2QIsj9P77YF3cRDqTX-21" target="Mm2QIsj9P77YF3cRDqTX-17">
          <mxGeometry relative="1" as="geometry" />
        </mxCell>
        <mxCell id="Mm2QIsj9P77YF3cRDqTX-21" value="editDeck" style="ellipse;whiteSpace=wrap;html=1;fillColor=#f8cecc;strokeColor=#b85450;" vertex="1" parent="1">
          <mxGeometry x="165.5" y="306" width="80" height="80" as="geometry" />
        </mxCell>
        <mxCell id="Mm2QIsj9P77YF3cRDqTX-24" value="editCard" style="ellipse;whiteSpace=wrap;html=1;fillColor=#f8cecc;strokeColor=#b85450;" vertex="1" parent="1">
          <mxGeometry x="254.5" y="306" width="80" height="80" as="geometry" />
        </mxCell>
        <mxCell id="Mm2QIsj9P77YF3cRDqTX-25" value="components" style="text;html=1;align=center;verticalAlign=middle;resizable=0;points=[];autosize=1;strokeColor=none;fillColor=none;fontSize=16;" vertex="1" parent="1">
          <mxGeometry x="197.5" y="395" width="105" height="31" as="geometry" />
        </mxCell>
        <mxCell id="Mm2QIsj9P77YF3cRDqTX-26" value="" style="edgeStyle=segmentEdgeStyle;endArrow=classic;html=1;curved=0;rounded=0;endSize=8;startSize=8;sourcePerimeterSpacing=0;targetPerimeterSpacing=0;fontSize=12;entryX=0.5;entryY=1;entryDx=0;entryDy=0;" edge="1" parent="1" source="Mm2QIsj9P77YF3cRDqTX-24" target="Mm2QIsj9P77YF3cRDqTX-19">
          <mxGeometry width="140" relative="1" as="geometry">
            <mxPoint x="250" y="349" as="sourcePoint" />
            <mxPoint x="390" y="409" as="targetPoint" />
            <Array as="points">
              <mxPoint x="353" y="346" />
            </Array>
          </mxGeometry>
        </mxCell>
        <mxCell id="Mm2QIsj9P77YF3cRDqTX-40" style="edgeStyle=none;curved=1;rounded=0;orthogonalLoop=1;jettySize=auto;html=1;exitX=0.75;exitY=1;exitDx=0;exitDy=0;entryX=0;entryY=0;entryDx=0;entryDy=0;fontSize=12;startSize=8;endSize=8;" edge="1" parent="1" source="Mm2QIsj9P77YF3cRDqTX-30" target="Mm2QIsj9P77YF3cRDqTX-32">
          <mxGeometry relative="1" as="geometry" />
        </mxCell>
        <mxCell id="Mm2QIsj9P77YF3cRDqTX-43" style="edgeStyle=none;curved=1;rounded=0;orthogonalLoop=1;jettySize=auto;html=1;exitX=0.25;exitY=1;exitDx=0;exitDy=0;entryX=1;entryY=0;entryDx=0;entryDy=0;fontSize=12;startSize=8;endSize=8;" edge="1" parent="1" source="Mm2QIsj9P77YF3cRDqTX-30" target="Mm2QIsj9P77YF3cRDqTX-31">
          <mxGeometry relative="1" as="geometry" />
        </mxCell>
        <mxCell id="Mm2QIsj9P77YF3cRDqTX-30" value="/api" style="whiteSpace=wrap;html=1;" vertex="1" parent="1">
          <mxGeometry x="1257" y="-259" width="120" height="60" as="geometry" />
        </mxCell>
        <mxCell id="Mm2QIsj9P77YF3cRDqTX-69" style="edgeStyle=none;curved=1;rounded=0;orthogonalLoop=1;jettySize=auto;html=1;exitX=0;exitY=0;exitDx=0;exitDy=0;entryX=0.5;entryY=0;entryDx=0;entryDy=0;fontSize=12;startSize=8;endSize=8;" edge="1" parent="1" source="Mm2QIsj9P77YF3cRDqTX-31" target="Mm2QIsj9P77YF3cRDqTX-49">
          <mxGeometry relative="1" as="geometry">
            <Array as="points">
              <mxPoint x="735" y="-135" />
              <mxPoint x="653" y="-120" />
            </Array>
          </mxGeometry>
        </mxCell>
        <mxCell id="Mm2QIsj9P77YF3cRDqTX-70" style="edgeStyle=none;curved=1;rounded=0;orthogonalLoop=1;jettySize=auto;html=1;exitX=0;exitY=0.5;exitDx=0;exitDy=0;entryX=0.5;entryY=0;entryDx=0;entryDy=0;fontSize=12;startSize=8;endSize=8;" edge="1" parent="1" source="Mm2QIsj9P77YF3cRDqTX-31" target="Mm2QIsj9P77YF3cRDqTX-45">
          <mxGeometry relative="1" as="geometry">
            <Array as="points">
              <mxPoint x="810" y="-107" />
            </Array>
          </mxGeometry>
        </mxCell>
        <mxCell id="Mm2QIsj9P77YF3cRDqTX-71" style="edgeStyle=none;curved=1;rounded=0;orthogonalLoop=1;jettySize=auto;html=1;exitX=0;exitY=1;exitDx=0;exitDy=0;entryX=0.5;entryY=0;entryDx=0;entryDy=0;fontSize=12;startSize=8;endSize=8;" edge="1" parent="1" source="Mm2QIsj9P77YF3cRDqTX-31" target="Mm2QIsj9P77YF3cRDqTX-59">
          <mxGeometry relative="1" as="geometry" />
        </mxCell>
        <mxCell id="Mm2QIsj9P77YF3cRDqTX-72" style="edgeStyle=none;curved=1;rounded=0;orthogonalLoop=1;jettySize=auto;html=1;exitX=0.5;exitY=1;exitDx=0;exitDy=0;fontSize=12;startSize=8;endSize=8;" edge="1" parent="1" source="Mm2QIsj9P77YF3cRDqTX-31" target="Mm2QIsj9P77YF3cRDqTX-61">
          <mxGeometry relative="1" as="geometry" />
        </mxCell>
        <mxCell id="Mm2QIsj9P77YF3cRDqTX-73" style="edgeStyle=none;curved=1;rounded=0;orthogonalLoop=1;jettySize=auto;html=1;exitX=1;exitY=1;exitDx=0;exitDy=0;entryX=0.5;entryY=0;entryDx=0;entryDy=0;fontSize=12;startSize=8;endSize=8;" edge="1" parent="1" source="Mm2QIsj9P77YF3cRDqTX-31" target="Mm2QIsj9P77YF3cRDqTX-53">
          <mxGeometry relative="1" as="geometry" />
        </mxCell>
        <mxCell id="Mm2QIsj9P77YF3cRDqTX-74" style="edgeStyle=none;curved=1;rounded=0;orthogonalLoop=1;jettySize=auto;html=1;exitX=1;exitY=0.5;exitDx=0;exitDy=0;entryX=0.5;entryY=0;entryDx=0;entryDy=0;fontSize=12;startSize=8;endSize=8;" edge="1" parent="1" source="Mm2QIsj9P77YF3cRDqTX-31" target="Mm2QIsj9P77YF3cRDqTX-67">
          <mxGeometry relative="1" as="geometry">
            <Array as="points">
              <mxPoint x="1355" y="-113" />
            </Array>
          </mxGeometry>
        </mxCell>
        <mxCell id="Mm2QIsj9P77YF3cRDqTX-31" value="/flashcard" style="whiteSpace=wrap;html=1;" vertex="1" parent="1">
          <mxGeometry x="1036" y="-133.5" width="120" height="60" as="geometry" />
        </mxCell>
        <mxCell id="Mm2QIsj9P77YF3cRDqTX-38" style="edgeStyle=none;curved=1;rounded=0;orthogonalLoop=1;jettySize=auto;html=1;exitX=0.25;exitY=1;exitDx=0;exitDy=0;entryX=1;entryY=0;entryDx=0;entryDy=0;fontSize=12;startSize=8;endSize=8;" edge="1" parent="1" source="Mm2QIsj9P77YF3cRDqTX-32" target="Mm2QIsj9P77YF3cRDqTX-36">
          <mxGeometry relative="1" as="geometry" />
        </mxCell>
        <mxCell id="Mm2QIsj9P77YF3cRDqTX-39" style="edgeStyle=none;curved=1;rounded=0;orthogonalLoop=1;jettySize=auto;html=1;exitX=0.75;exitY=1;exitDx=0;exitDy=0;entryX=0;entryY=0;entryDx=0;entryDy=0;fontSize=12;startSize=8;endSize=8;" edge="1" parent="1" source="Mm2QIsj9P77YF3cRDqTX-32" target="Mm2QIsj9P77YF3cRDqTX-37">
          <mxGeometry relative="1" as="geometry" />
        </mxCell>
        <mxCell id="Mm2QIsj9P77YF3cRDqTX-32" value="/gol" style="whiteSpace=wrap;html=1;" vertex="1" parent="1">
          <mxGeometry x="1678" y="-144" width="120" height="60" as="geometry" />
        </mxCell>
        <mxCell id="Mm2QIsj9P77YF3cRDqTX-36" value="/patterns" style="whiteSpace=wrap;html=1;" vertex="1" parent="1">
          <mxGeometry x="1558" y="-64" width="120" height="60" as="geometry" />
        </mxCell>
        <mxCell id="Mm2QIsj9P77YF3cRDqTX-37" value="/patterns/{fn}" style="whiteSpace=wrap;html=1;" vertex="1" parent="1">
          <mxGeometry x="1798" y="-64" width="120" height="60" as="geometry" />
        </mxCell>
        <mxCell id="Mm2QIsj9P77YF3cRDqTX-41" value="returns json representing file contents&lt;div&gt;1. checks to see fn is provided&lt;/div&gt;&lt;div&gt;2. checks to see if fn exists&lt;/div&gt;&lt;div&gt;3. reads file contents to json&lt;/div&gt;&lt;div&gt;4. returns json as payload&lt;/div&gt;" style="text;html=1;align=left;verticalAlign=middle;resizable=0;points=[];autosize=1;strokeColor=#82b366;fillColor=#d5e8d4;fontSize=6;" vertex="1" parent="1">
          <mxGeometry x="1799" y="1" width="118" height="48" as="geometry" />
        </mxCell>
        <mxCell id="Mm2QIsj9P77YF3cRDqTX-42" value="&lt;font&gt;returns json representing pattern filenames&lt;/font&gt;&lt;div&gt;&lt;font&gt;1. reads the static dir for pattern files&lt;/font&gt;&lt;/div&gt;&lt;div&gt;&lt;font&gt;2. appends all non-directory files to array&lt;/font&gt;&lt;/div&gt;&lt;div&gt;&lt;font&gt;3. encodes array to json&lt;/font&gt;&lt;/div&gt;&lt;div&gt;&lt;font&gt;4. returns json as payload&lt;/font&gt;&lt;/div&gt;" style="text;html=1;align=left;verticalAlign=middle;resizable=0;points=[];autosize=1;strokeColor=#82b366;fillColor=#d5e8d4;fontSize=6;" vertex="1" parent="1">
          <mxGeometry x="1552" y="-5.5" width="132" height="48" as="geometry" />
        </mxCell>
        <mxCell id="Mm2QIsj9P77YF3cRDqTX-45" value="/random" style="whiteSpace=wrap;html=1;" vertex="1" parent="1">
          <mxGeometry x="747" y="-50" width="120" height="60" as="geometry" />
        </mxCell>
        <mxCell id="Mm2QIsj9P77YF3cRDqTX-47" value="&lt;font&gt;for some rsn the /api/flashcard endpoint is the random one, so this will be changed&lt;/font&gt;" style="text;strokeColor=none;fillColor=none;html=1;align=center;verticalAlign=middle;whiteSpace=wrap;rounded=0;fontSize=6;" vertex="1" parent="1">
          <mxGeometry x="1062.5" y="-174" width="60" height="30" as="geometry" />
        </mxCell>
        <mxCell id="Mm2QIsj9P77YF3cRDqTX-48" value="GET:&lt;br&gt;1. calls db.getRandomCard&lt;div&gt;2. encodes and returns as json&lt;/div&gt;" style="text;html=1;align=left;verticalAlign=middle;resizable=0;points=[];autosize=1;strokeColor=#82b366;fillColor=#d5e8d4;fontSize=6;" vertex="1" parent="1">
          <mxGeometry x="757" y="12.5" width="100" height="34" as="geometry" />
        </mxCell>
        <mxCell id="Mm2QIsj9P77YF3cRDqTX-49" value="/rate" style="whiteSpace=wrap;html=1;" vertex="1" parent="1">
          <mxGeometry x="596" y="-50" width="120" height="60" as="geometry" />
        </mxCell>
        <mxCell id="Mm2QIsj9P77YF3cRDqTX-51" value="POST:&lt;br&gt;1. parse form for &quot;ID&quot; and &quot;Rating&quot;&lt;div&gt;2. convert values&lt;/div&gt;&lt;div&gt;3. TODO: write db method for&amp;nbsp; incoming ratings&lt;/div&gt;" style="text;html=1;align=left;verticalAlign=middle;resizable=0;points=[];autosize=1;strokeColor=#d79b00;fillColor=#ffe6cc;fontSize=6;" vertex="1" parent="1">
          <mxGeometry x="596" y="12" width="144" height="41" as="geometry" />
        </mxCell>
        <mxCell id="Mm2QIsj9P77YF3cRDqTX-52" style="edgeStyle=none;curved=1;rounded=0;orthogonalLoop=1;jettySize=auto;html=1;entryX=0.006;entryY=0.537;entryDx=0;entryDy=0;entryPerimeter=0;fontSize=12;startSize=8;endSize=8;" edge="1" parent="1" source="Mm2QIsj9P77YF3cRDqTX-51" target="Mm2QIsj9P77YF3cRDqTX-51">
          <mxGeometry relative="1" as="geometry" />
        </mxCell>
        <mxCell id="Mm2QIsj9P77YF3cRDqTX-53" value="/cards/{deckID}" style="whiteSpace=wrap;html=1;" vertex="1" parent="1">
          <mxGeometry x="1183.5" y="-50" width="120" height="60" as="geometry" />
        </mxCell>
        <mxCell id="Mm2QIsj9P77YF3cRDqTX-55" value="GET:&amp;nbsp;&lt;div&gt;1. parses url for deck id&lt;/div&gt;&lt;div&gt;2. calls db.GetCardsFromDeck&lt;/div&gt;&lt;div&gt;3. encodes and returns card data as json&lt;/div&gt;" style="text;html=1;align=left;verticalAlign=middle;resizable=0;points=[];autosize=1;strokeColor=#82b366;fillColor=#d5e8d4;fontSize=6;rounded=0;imageWidth=20;" vertex="1" parent="1">
          <mxGeometry x="1183.5" y="21" width="127" height="41" as="geometry" />
        </mxCell>
        <mxCell id="Mm2QIsj9P77YF3cRDqTX-59" value="/decks" style="whiteSpace=wrap;html=1;" vertex="1" parent="1">
          <mxGeometry x="884.5" y="-50" width="120" height="60" as="geometry" />
        </mxCell>
        <mxCell id="Mm2QIsj9P77YF3cRDqTX-60" value="GET:&lt;br&gt;1. calls db.GetDecksData&lt;div&gt;2. encodes and returns as json&lt;/div&gt;" style="text;html=1;align=left;verticalAlign=middle;resizable=0;points=[];autosize=1;strokeColor=#82b366;fillColor=#d5e8d4;fontSize=6;" vertex="1" parent="1">
          <mxGeometry x="894.5" y="12.5" width="100" height="34" as="geometry" />
        </mxCell>
        <mxCell id="Mm2QIsj9P77YF3cRDqTX-61" value="/decks{name}&lt;div&gt;/decks{deckID}&lt;/div&gt;" style="whiteSpace=wrap;html=1;" vertex="1" parent="1">
          <mxGeometry x="1036" y="-50" width="120" height="60" as="geometry" />
        </mxCell>
        <mxCell id="Mm2QIsj9P77YF3cRDqTX-62" value="POST:&lt;div&gt;1. get name from req body&lt;/div&gt;&lt;div&gt;2. poor validation&lt;/div&gt;&lt;div&gt;3. insert using db.InsertDeck&lt;/div&gt;&lt;div&gt;4. return deck name as json&lt;/div&gt;" style="text;html=1;align=left;verticalAlign=middle;resizable=0;points=[];autosize=1;strokeColor=#d79b00;fillColor=#ffe6cc;fontSize=6;" vertex="1" parent="1">
          <mxGeometry x="1049" y="14" width="94" height="48" as="geometry" />
        </mxCell>
        <mxCell id="Mm2QIsj9P77YF3cRDqTX-63" value="todo: /decks/ currently uses name as the variable for POST&lt;div&gt;but id for DELETE, so make post use id&lt;/div&gt;" style="text;html=1;align=center;verticalAlign=middle;resizable=0;points=[];autosize=1;strokeColor=none;fillColor=none;fontSize=6;" vertex="1" parent="1">
          <mxGeometry x="1005" y="126" width="175" height="26" as="geometry" />
        </mxCell>
        <mxCell id="Mm2QIsj9P77YF3cRDqTX-64" value="DELETE:&lt;div&gt;1. parse id from req url path&lt;/div&gt;&lt;div&gt;2. call db.DeleteDeckByID&lt;/div&gt;&lt;div&gt;3. return 204 success&lt;/div&gt;" style="text;html=1;align=left;verticalAlign=middle;resizable=0;points=[];autosize=1;strokeColor=#b85450;fillColor=#f8cecc;fontSize=6;" vertex="1" parent="1">
          <mxGeometry x="1050" y="70" width="92" height="41" as="geometry" />
        </mxCell>
        <mxCell id="Mm2QIsj9P77YF3cRDqTX-67" value="/cards" style="whiteSpace=wrap;html=1;" vertex="1" parent="1">
          <mxGeometry x="1330.5" y="-50" width="120" height="60" as="geometry" />
        </mxCell>
        <mxCell id="Mm2QIsj9P77YF3cRDqTX-68" value="POST:&lt;div&gt;1. decode front &amp;amp; back from req body&lt;/div&gt;&lt;div&gt;2. poor validation&lt;/div&gt;&lt;div&gt;3. create card obj using db.CreateCard&lt;/div&gt;&lt;div&gt;4. insert using db.InsertCards&lt;/div&gt;&lt;div&gt;5. decode deck id from req url path&lt;/div&gt;&lt;div&gt;6. add card to deck using db.AddCardToDeck&lt;/div&gt;&lt;div&gt;7. encode and return card data as json&lt;/div&gt;" style="text;html=1;align=left;verticalAlign=middle;resizable=0;points=[];autosize=1;strokeColor=#d79b00;fillColor=#ffe6cc;fontSize=6;" vertex="1" parent="1">
          <mxGeometry x="1330.5" y="27" width="139" height="70" as="geometry" />
        </mxCell>
        <mxCell id="Mm2QIsj9P77YF3cRDqTX-75" value="DELETE:&lt;div&gt;1. decode id from req body&lt;/div&gt;&lt;div&gt;2. poor validation&lt;/div&gt;&lt;div&gt;3. delete using db.DeleteCardByID&lt;/div&gt;&lt;div&gt;4. encode JSON??? for success&lt;/div&gt;&lt;div&gt;TODO: CHANGE TO 204&lt;/div&gt;" style="text;html=1;align=left;verticalAlign=middle;resizable=0;points=[];autosize=1;strokeColor=#b85450;fillColor=#f8cecc;fontSize=6;" vertex="1" parent="1">
          <mxGeometry x="1330.5" y="104" width="110" height="55" as="geometry" />
        </mxCell>
        <mxCell id="Mm2QIsj9P77YF3cRDqTX-76" value="PUT:&lt;div&gt;1. decode updated card data from req body&lt;/div&gt;&lt;div&gt;2. poor validation&lt;/div&gt;&lt;div&gt;3. update with db.UpdateCard&lt;/div&gt;&lt;div&gt;4. return card as json response&lt;/div&gt;" style="text;html=1;align=left;verticalAlign=middle;resizable=0;points=[];autosize=1;strokeColor=#9673a6;fillColor=#e1d5e7;fontSize=6;rounded=0;imageWidth=20;" vertex="1" parent="1">
          <mxGeometry x="1330.5" y="171" width="133" height="48" as="geometry" />
        </mxCell>
        <mxCell id="Mm2QIsj9P77YF3cRDqTX-78" value="" style="rounded=0;whiteSpace=wrap;html=1;fillColor=#f8cecc;strokeColor=#b85450;" vertex="1" parent="1">
          <mxGeometry x="-442" y="56" width="160" height="80" as="geometry" />
        </mxCell>
        <mxCell id="Mm2QIsj9P77YF3cRDqTX-79" value="/p&lt;span style=&quot;background-color: transparent; color: light-dark(rgb(0, 0, 0), rgb(255, 255, 255));&quot;&gt;rojects/polarclock&lt;/span&gt;" style="text;strokeColor=none;fillColor=none;html=1;align=center;verticalAlign=middle;whiteSpace=wrap;rounded=0;fontSize=16;" vertex="1" parent="1">
          <mxGeometry x="-395" y="81" width="66" height="30" as="geometry" />
        </mxCell>
      </root>
    </mxGraphModel>
  </diagram>
</mxfile>
